# Blender v2.83.5 OBJ File: ''
# www.blender.org
mtllib example.mtl
o Icosphere
v 0.029079 -0.324563 -0.014653
v 0.635833 -0.427558 0.366476
v -0.111011 -1.833255 1.056919
v -0.818230 0.148271 -0.199970
v -0.216138 -0.297997 -0.875818
v 0.430914 -0.166150 -0.871651
v 0.364093 0.525194 0.949111
v -1.271345 0.706438 0.089981
v -0.743803 0.297311 -1.022512
v 0.554937 0.088998 -1.688940
v 0.930292 0.432056 0.089324
v 0.000000 1.003867 0.460572
v -0.082160 -0.945125 0.360212
v 0.300352 -0.563186 0.181907
v 0.196400 -1.514019 0.909323
v 0.820894 0.096109 -0.261244
v 0.286121 -0.233249 -0.382154
v -0.255420 -0.144451 -0.093880
v -0.525120 -0.501346 0.351037
v -0.066341 -0.222792 -0.516738
v -0.409186 -0.259930 -0.849360
v 0.188663 -0.381666 -0.825038
v 1.276386 -0.037679 0.131438
v 0.835203 0.238690 -0.479556
v 0.000000 -0.000626 0.989125
v 0.587186 -0.009780 0.781501
v -1.276386 -0.037679 0.131438
v -0.584238 -0.014354 0.791069
v -0.670720 0.171208 -1.079488
v -0.835203 0.238690 -0.479556
v 0.670720 0.171208 -1.079488
v 0.000000 -0.035016 -1.063017
v 1.324375 0.828778 0.015421
v -0.417424 0.760947 1.555542
v -0.956375 0.499910 0.378830
v -0.605913 0.079402 -1.755464
v 0.723329 0.304920 -1.090689
v 0.135360 0.953718 0.947972
v 0.143743 1.377412 0.905681
v -0.081742 1.358715 0.873299
v -0.801477 0.577169 -0.052064
v 0.297090 0.681979 -0.833241
vt 0.818181 0.000000
vt 0.772726 0.078731
vt 0.863635 0.078731
vt 0.727272 0.157461
vt 0.681818 0.078731
vt 0.636363 0.157461
vt 0.090909 0.000000
vt 0.045454 0.078731
vt 0.136363 0.078731
vt 0.272727 0.000000
vt 0.227273 0.078731
vt 0.318182 0.078731
vt 0.454545 0.000000
vt 0.409090 0.078731
vt 0.500000 0.078731
vt 0.681818 0.236191
vt 0.909090 0.157461
vt 0.818181 0.157461
vt 0.863635 0.236191
vt 0.181818 0.157461
vt 0.090909 0.157461
vt 0.136363 0.236191
vt 0.363636 0.157461
vt 0.272727 0.157461
vt 0.318182 0.236191
vt 0.545454 0.157461
vt 0.454545 0.157461
vt 0.500000 0.236191
vt 0.772726 0.236191
vt 0.954545 0.236191
vt 0.227273 0.236191
vt 0.409090 0.236191
vt 0.590909 0.236191
vt 0.818181 0.314921
vt 0.727272 0.314921
vt 0.772726 0.393651
vt 1.000000 0.314921
vt 0.909091 0.314921
vt 0.954545 0.393651
vt 0.272727 0.314921
vt 0.181818 0.314921
vt 0.227273 0.393651
vt 0.454545 0.314921
vt 0.363636 0.314921
vt 0.409090 0.393651
vt 0.636363 0.314921
vt 0.545454 0.314921
vt 0.590909 0.393651
vt 0.500000 0.393651
vt 0.545454 0.472382
vt 0.318182 0.393651
vt 0.363636 0.472382
vt 0.136363 0.393651
vt 0.181818 0.472382
vt 0.090909 0.314921
vt 0.863635 0.393651
vt 0.909090 0.472382
vt 0.681818 0.393651
vt 0.727272 0.472382
vt 0.045454 0.236191
vt 0.000000 0.157461
vt 0.590909 0.078731
vt 0.636363 0.000000
vn 0.1396 -0.5302 -0.8363
vn 0.5346 -0.7198 -0.4428
vn -0.0802 -0.5048 -0.8595
vn -0.5186 -0.8518 -0.0741
vn 0.0503 -0.9769 -0.2076
vn 0.2638 -0.7775 -0.5709
vn 0.4264 0.0076 0.9045
vn -0.2217 -0.6870 -0.6920
vn -0.2199 -0.5598 -0.7989
vn 0.5074 -0.6838 -0.5244
vn 0.5615 -0.5494 0.6188
vn -0.3217 0.0545 0.9453
vn 0.1544 -0.9373 -0.3125
vn -0.1327 -0.5001 -0.8558
vn 0.7647 -0.6292 -0.1389
vn 0.6046 0.3246 0.7274
vn -0.6114 0.7194 0.3295
vn -0.8244 0.5289 -0.2015
vn 0.0255 0.8252 -0.5642
vn 0.6650 0.7211 -0.1943
vn -0.6918 0.6474 -0.3199
vn 0.5409 0.7963 -0.2708
vn 0.4509 0.7915 -0.4126
vn -0.2958 0.9089 -0.2940
vn -0.2992 0.9061 -0.2991
vn 0.0665 0.9598 -0.2728
vn 0.0118 0.7594 -0.6505
vn -0.6653 0.7389 -0.1067
vn 0.6045 -0.1673 -0.7788
vn 0.8785 0.4342 -0.1993
vn 0.5898 0.4409 0.6765
vn 0.6383 0.3425 0.6894
vn -0.9613 0.0461 0.2717
vn 0.6201 0.0658 0.7818
vn -0.4729 0.3166 -0.8223
vn 0.9837 0.0349 -0.1763
vn 0.9046 -0.3732 -0.2060
vn 0.9197 -0.3723 -0.1245
vn 0.0184 -0.9837 -0.1786
vn -0.2947 -0.9503 0.1008
vn -0.8682 -0.4960 -0.0159
vn -0.9852 0.0649 -0.1588
vn -0.7603 0.5837 -0.2850
vn 0.6585 -0.0463 -0.7512
vn -0.8179 -0.3051 0.4879
vn -0.2277 -0.6584 0.7174
vn 0.5254 -0.3033 0.7950
vn 0.6862 0.0590 0.7250
vn 0.6862 0.0591 0.7250
vn -0.0553 -0.1295 -0.9900
vn 0.2947 -0.9528 0.0725
vn 0.1358 -0.5094 -0.8497
vn -0.0152 -0.5715 -0.8204
vn -0.8842 -0.4245 -0.1947
vn -0.8052 -0.5720 -0.1564
vn -0.8015 -0.5815 -0.1394
vn -0.6900 0.0449 0.7224
vn -0.5419 -0.5987 0.5898
vn -0.9643 -0.2322 0.1275
vn 0.3271 -0.1556 0.9321
vn 0.3333 -0.0065 0.9428
vn 0.9227 -0.2123 0.3219
vn 0.7774 0.5445 -0.3150
vn 0.2103 -0.8248 -0.5249
vn 0.8026 -0.5222 -0.2884
vn 0.6719 -0.7341 0.0981
vn -0.1592 -0.9250 0.3450
vn -0.2285 -0.9294 0.2900
vn -0.1519 -0.9528 0.2629
vn -0.0491 -0.9858 0.1607
vn -0.4827 -0.8457 0.2275
vn -0.2276 -0.6876 -0.6895
vn -0.4937 -0.5074 -0.7063
vn -0.5081 -0.5213 -0.6856
vn 0.5181 -0.8545 0.0361
vn 0.5415 -0.7197 -0.4346
vn -0.3736 -0.8047 -0.4613
vn 0.2615 -0.6010 -0.7553
vn 0.2523 -0.6052 -0.7550
vn 0.5627 -0.5402 -0.6257
usemtl None
s off
f 1/1/1 14/2/1 13/3/1
f 2/4/2 14/5/2 16/6/2
f 1/7/3 13/8/3 18/9/3
f 1/10/4 18/11/4 20/12/4
f 1/13/5 20/14/5 17/15/5
f 2/4/6 16/6/6 23/16/6
f 3/17/7 15/18/7 25/19/7
f 4/20/8 19/21/8 27/22/8
f 5/23/9 21/24/9 29/25/9
f 6/26/10 22/27/10 31/28/10
f 2/4/11 23/16/11 26/29/11
f 3/17/12 25/19/12 28/30/12
f 4/20/13 27/22/13 30/31/13
f 5/23/14 29/25/14 32/32/14
f 6/26/15 31/28/15 24/33/15
f 7/34/16 33/35/16 38/36/16
f 8/37/17 34/38/17 40/39/17
f 9/40/18 35/41/18 41/42/18
f 10/43/19 36/44/19 42/45/19
f 11/46/20 37/47/20 39/48/20
f 39/48/21 42/49/21 12/50/21
f 39/48/22 37/47/22 42/49/22
f 37/47/23 10/43/23 42/49/23
f 42/45/24 41/51/24 12/52/24
f 42/45/25 36/44/25 41/51/25
f 36/44/26 9/40/26 41/51/26
f 41/42/27 40/53/27 12/54/27
f 41/42/28 35/41/28 40/53/28
f 35/41/29 8/55/29 40/53/29
f 40/39/30 38/56/30 12/57/30
f 40/39/31 34/38/31 38/56/31
f 34/38/32 7/34/32 38/56/32
f 38/36/33 39/58/33 12/59/33
f 38/36/34 33/35/34 39/58/34
f 33/35/35 11/46/35 39/58/35
f 24/33/36 37/47/36 11/46/36
f 24/33/37 31/28/37 37/47/37
f 31/28/38 10/43/38 37/47/38
f 32/32/39 36/44/39 10/43/39
f 32/32/40 29/25/40 36/44/40
f 29/25/41 9/40/41 36/44/41
f 30/31/42 35/41/42 9/40/42
f 30/31/43 27/22/43 35/41/43
f 27/22/44 8/55/44 35/41/44
f 28/30/45 34/38/45 8/37/45
f 28/30/46 25/19/46 34/38/46
f 25/19/47 7/34/47 34/38/47
f 26/29/48 33/35/48 7/34/48
f 26/29/49 23/16/49 33/35/49
f 23/16/50 11/46/50 33/35/50
f 31/28/51 32/32/51 10/43/51
f 31/28/52 22/27/52 32/32/52
f 22/27/53 5/23/53 32/32/53
f 29/25/54 30/31/54 9/40/54
f 29/25/55 21/24/55 30/31/55
f 21/24/56 4/20/56 30/31/56
f 27/22/57 28/60/57 8/55/57
f 27/22/58 19/21/58 28/60/58
f 19/21/59 3/61/59 28/60/59
f 25/19/60 26/29/60 7/34/60
f 25/19/61 15/18/61 26/29/61
f 15/18/62 2/4/62 26/29/62
f 23/16/63 24/33/63 11/46/63
f 23/16/64 16/6/64 24/33/64
f 16/6/65 6/26/65 24/33/65
f 17/15/66 22/27/66 6/26/66
f 17/15/67 20/14/67 22/27/67
f 20/14/68 5/23/68 22/27/68
f 20/12/69 21/24/69 5/23/69
f 20/12/70 18/11/70 21/24/70
f 18/11/71 4/20/71 21/24/71
f 18/9/72 19/21/72 4/20/72
f 18/9/73 13/8/73 19/21/73
f 13/8/74 3/61/74 19/21/74
f 16/6/75 17/62/75 6/26/75
f 16/6/76 14/5/76 17/62/76
f 14/5/77 1/63/77 17/62/77
f 13/3/78 15/18/78 3/17/78
f 13/3/79 14/2/79 15/18/79
f 14/2/80 2/4/80 15/18/80
