# Blender v2.82 (sub 7) OBJ File: ''
# www.blender.org
mtllib angular_med.mtl
o Icosphere
v -0.065309 -0.536926 -0.818483
v 0.779407 -0.490834 0.541379
v -0.466117 -0.629031 0.843364
v -0.728491 -0.598835 0.364185
v -0.391933 -0.288767 -0.837153
v 0.811785 -0.254497 -0.394204
v 0.470203 -0.025483 0.874543
v -0.671585 -0.141379 0.747666
v -0.966902 -0.097081 0.120390
v 0.513408 0.100797 -0.725557
v 0.868124 -0.099611 0.326648
v 0.031441 0.240657 0.755282
v -0.416687 -0.772917 0.728831
v 0.766440 -0.708255 -0.010064
v 0.662757 -0.566535 0.715315
v 0.809237 -0.533799 0.158157
v 0.552922 -0.517686 -0.687682
v -0.752115 -0.729285 -0.188542
v -0.612898 -0.641200 0.661068
v -0.248763 -0.400030 -0.852635
v -0.839023 -0.460972 -0.262884
v 0.185800 -0.285804 -0.892840
v 0.843440 -0.276179 0.403038
v 0.908934 -0.134868 0.014886
v 0.094691 -0.315862 0.935392
v 0.756262 -0.225139 0.695421
v -0.741833 -0.404185 0.563957
v -0.607312 -0.335287 0.833781
v -0.946662 -0.162515 -0.288769
v -0.905070 -0.281529 0.199003
v 0.832860 -0.018688 -0.469364
v -0.126831 0.089143 -0.924914
v 0.757997 -0.001106 0.618040
v -0.346845 -0.049047 0.946923
v -0.798247 -0.185055 0.528076
v -0.715794 0.003275 -0.579137
v 0.922531 0.098483 -0.032308
v 0.530883 0.118173 0.812559
v 0.767455 0.145006 0.526307
v -0.614444 -0.024805 0.804919
v -0.828383 0.144121 0.458334
v 0.839226 0.193912 -0.218663
vt 0.818181 0.000000
vt 0.772726 0.078731
vt 0.863635 0.078731
vt 0.727272 0.157461
vt 0.681818 0.078731
vt 0.636363 0.157461
vt 0.090909 0.000000
vt 0.045454 0.078731
vt 0.136363 0.078731
vt 0.272727 0.000000
vt 0.227273 0.078731
vt 0.318182 0.078731
vt 0.454545 0.000000
vt 0.409090 0.078731
vt 0.500000 0.078731
vt 0.681818 0.236191
vt 0.909090 0.157461
vt 0.818181 0.157461
vt 0.863635 0.236191
vt 0.181818 0.157461
vt 0.090909 0.157461
vt 0.136363 0.236191
vt 0.363636 0.157461
vt 0.272727 0.157461
vt 0.318182 0.236191
vt 0.545454 0.157461
vt 0.454545 0.157461
vt 0.500000 0.236191
vt 0.772726 0.236191
vt 0.954545 0.236191
vt 0.227273 0.236191
vt 0.409090 0.236191
vt 0.590909 0.236191
vt 0.818181 0.314921
vt 0.727272 0.314921
vt 0.772726 0.393651
vt 1.000000 0.314921
vt 0.909091 0.314921
vt 0.954545 0.393651
vt 0.272727 0.314921
vt 0.181818 0.314921
vt 0.227273 0.393651
vt 0.454545 0.314921
vt 0.363636 0.314921
vt 0.409090 0.393651
vt 0.636363 0.314921
vt 0.545454 0.314921
vt 0.590909 0.393651
vt 0.500000 0.393651
vt 0.545454 0.472382
vt 0.318182 0.393651
vt 0.363636 0.472382
vt 0.136363 0.393651
vt 0.181818 0.472382
vt 0.090909 0.314921
vt 0.863635 0.393651
vt 0.909090 0.472382
vt 0.681818 0.393651
vt 0.727272 0.472382
vt 0.045454 0.236191
vt 0.000000 0.157461
vt 0.590909 0.078731
vt 0.636363 0.000000
vn -0.0466 -0.9859 -0.1610
vn 0.9354 -0.3360 0.1105
vn 0.1733 -0.9787 -0.1099
vn -0.3869 -0.6752 -0.6280
vn 0.2059 0.0320 -0.9780
vn 0.9693 -0.2243 0.1006
vn 0.1251 -0.4793 0.8687
vn -0.8851 -0.3614 0.2931
vn -0.7032 -0.3092 -0.6402
vn 0.6051 -0.2904 -0.7413
vn 0.9499 -0.0906 0.2991
vn -0.1422 -0.0361 0.9892
vn -0.8932 -0.3504 0.2818
vn -0.6407 0.2838 -0.7134
vn 0.9712 -0.1466 -0.1878
vn 0.6627 0.0426 0.7476
vn -0.4736 -0.1902 0.8600
vn -0.9243 -0.0038 0.3816
vn -0.0929 0.9882 -0.1218
vn 0.9502 0.1886 0.2481
vn 0.1527 0.9851 0.0794
vn 0.6309 0.7679 0.1112
vn 0.8367 -0.2354 -0.4945
vn -0.0737 0.9913 -0.1087
vn -0.0876 0.9858 -0.1433
vn -0.7337 0.6581 -0.1690
vn -0.2795 0.7838 0.5546
vn -0.8422 0.0368 0.5379
vn -0.8656 0.1985 0.4598
vn -0.0413 0.2799 0.9591
vn -0.1172 0.9185 0.3776
vn 0.0714 0.3696 0.9265
vn 0.2025 0.9453 0.2559
vn 0.7084 0.3418 0.6175
vn 0.9411 0.1340 0.3104
vn 0.9906 -0.0308 0.1332
vn 0.9800 -0.0927 -0.1762
vn 0.5460 0.7744 -0.3196
vn -0.0617 0.9882 0.1403
vn -0.2609 -0.7343 -0.6267
vn -0.6924 0.7063 -0.1472
vn -0.9237 -0.1617 0.3473
vn -0.9191 -0.1792 0.3509
vn -0.8467 -0.1337 0.5150
vn -0.5510 0.1793 0.8150
vn -0.1314 -0.2587 0.9570
vn 0.0850 0.0978 0.9916
vn 0.6327 0.2484 0.7335
vn 0.9588 0.0861 0.2708
vn 0.9374 0.0194 0.3477
vn 0.2043 -0.7646 -0.6113
vn 0.4367 0.2913 -0.8511
vn -0.0938 -0.1623 -0.9823
vn -0.9486 -0.3164 0.0037
vn -0.9406 -0.3395 -0.0026
vn -0.8842 -0.4640 0.0538
vn -0.8825 -0.0872 0.4622
vn -0.8369 -0.2574 0.4830
vn -0.7248 -0.3286 0.6055
vn 0.3611 -0.2806 0.8893
vn 0.3456 -0.0400 0.9375
vn 0.8518 -0.2052 0.4820
vn 0.9873 -0.0783 0.1381
vn 0.9734 -0.2120 0.0871
vn 0.9474 -0.2874 -0.1409
vn 0.5926 0.2653 -0.7606
vn 0.0797 -0.5868 -0.8058
vn -0.0960 0.0150 -0.9953
vn -0.5323 -0.6022 -0.5950
vn -0.6303 -0.3901 -0.6712
vn -0.9542 -0.2795 0.1067
vn -0.7246 -0.6632 0.1875
vn -0.5901 -0.7874 0.1783
vn -0.5928 -0.6163 0.5184
vn 0.8168 -0.5164 -0.2573
vn 0.9563 0.0440 -0.2890
vn 0.0923 -0.9506 -0.2964
vn 0.1231 -0.5918 0.7966
vn 0.1860 -0.9590 0.2139
vn 0.7466 -0.6248 0.2288
usemtl None
s off
f 1/1/1 14/2/1 13/3/1
f 2/4/2 14/5/2 16/6/2
f 1/7/3 13/8/3 18/9/3
f 1/10/4 18/11/4 20/12/4
f 1/13/5 20/14/5 17/15/5
f 2/4/6 16/6/6 23/16/6
f 3/17/7 15/18/7 25/19/7
f 4/20/8 19/21/8 27/22/8
f 5/23/9 21/24/9 29/25/9
f 6/26/10 22/27/10 31/28/10
f 2/4/11 23/16/11 26/29/11
f 3/17/12 25/19/12 28/30/12
f 4/20/13 27/22/13 30/31/13
f 5/23/14 29/25/14 32/32/14
f 6/26/15 31/28/15 24/33/15
f 7/34/16 33/35/16 38/36/16
f 8/37/17 34/38/17 40/39/17
f 9/40/18 35/41/18 41/42/18
f 10/43/19 36/44/19 42/45/19
f 11/46/20 37/47/20 39/48/20
f 39/48/21 42/49/21 12/50/21
f 39/48/22 37/47/22 42/49/22
f 37/47/23 10/43/23 42/49/23
f 42/45/24 41/51/24 12/52/24
f 42/45/25 36/44/25 41/51/25
f 36/44/26 9/40/26 41/51/26
f 41/42/27 40/53/27 12/54/27
f 41/42/28 35/41/28 40/53/28
f 35/41/29 8/55/29 40/53/29
f 40/39/30 38/56/30 12/57/30
f 40/39/31 34/38/31 38/56/31
f 34/38/32 7/34/32 38/56/32
f 38/36/33 39/58/33 12/59/33
f 38/36/34 33/35/34 39/58/34
f 33/35/35 11/46/35 39/58/35
f 24/33/36 37/47/36 11/46/36
f 24/33/37 31/28/37 37/47/37
f 31/28/38 10/43/38 37/47/38
f 32/32/39 36/44/39 10/43/39
f 32/32/40 29/25/40 36/44/40
f 29/25/41 9/40/41 36/44/41
f 30/31/42 35/41/42 9/40/42
f 30/31/43 27/22/43 35/41/43
f 27/22/44 8/55/44 35/41/44
f 28/30/45 34/38/45 8/37/45
f 28/30/46 25/19/46 34/38/46
f 25/19/47 7/34/47 34/38/47
f 26/29/48 33/35/48 7/34/48
f 26/29/49 23/16/49 33/35/49
f 23/16/50 11/46/50 33/35/50
f 31/28/51 32/32/51 10/43/51
f 31/28/52 22/27/52 32/32/52
f 22/27/53 5/23/53 32/32/53
f 29/25/54 30/31/54 9/40/54
f 29/25/55 21/24/55 30/31/55
f 21/24/56 4/20/56 30/31/56
f 27/22/57 28/60/57 8/55/57
f 27/22/58 19/21/58 28/60/58
f 19/21/59 3/61/59 28/60/59
f 25/19/60 26/29/60 7/34/60
f 25/19/61 15/18/61 26/29/61
f 15/18/62 2/4/62 26/29/62
f 23/16/63 24/33/63 11/46/63
f 23/16/64 16/6/64 24/33/64
f 16/6/65 6/26/65 24/33/65
f 17/15/66 22/27/66 6/26/66
f 17/15/67 20/14/67 22/27/67
f 20/14/68 5/23/68 22/27/68
f 20/12/69 21/24/69 5/23/69
f 20/12/70 18/11/70 21/24/70
f 18/11/71 4/20/71 21/24/71
f 18/9/72 19/21/72 4/20/72
f 18/9/73 13/8/73 19/21/73
f 13/8/74 3/61/74 19/21/74
f 16/6/75 17/62/75 6/26/75
f 16/6/76 14/5/76 17/62/76
f 14/5/77 1/63/77 17/62/77
f 13/3/78 15/18/78 3/17/78
f 13/3/79 14/2/79 15/18/79
f 14/2/80 2/4/80 15/18/80
