# Blender v2.82 (sub 7) OBJ File: ''
# www.blender.org
mtllib Pillar_angle_45.mtl
o Icosphere
v 0.053688 -0.653529 0.127813
v 0.270657 -0.479592 0.511946
v -0.379564 -0.554456 0.305906
v -0.151337 -0.516209 -0.395736
v 0.459389 -0.506568 -0.532860
v 0.700011 -0.385220 -0.110135
v -0.088885 0.249194 0.451000
v -0.360735 0.279429 0.150398
v -0.139566 0.167778 -0.180328
v 0.244609 0.010952 0.057205
v 0.156475 0.331886 0.412199
v -0.496510 1.339337 0.550797
v 0.016871 -0.643789 0.026982
v 0.265530 -0.600041 0.145763
v -0.038795 -0.629014 0.500217
v 0.560329 -0.535424 0.252106
v 0.391396 -0.595516 0.086937
v 0.015650 -0.622153 -0.135663
v -0.307352 -0.582005 -0.028447
v 0.352479 -0.609764 -0.334961
v 0.239522 -0.513353 -0.532256
v 0.656943 -0.567401 -0.380274
v 0.038056 0.261185 0.440849
v 0.262944 0.219917 0.361478
v -0.214163 0.129215 0.347216
v -0.018652 0.232077 0.480861
v -0.341733 0.228224 0.094784
v -0.373660 0.201305 0.157371
v -0.008852 -0.067263 -0.300066
v -0.278976 0.172885 -0.132321
v 0.428126 -0.029338 0.098110
v 0.342953 -0.177728 -0.234955
v -0.031042 0.338038 0.464988
v -0.337401 0.243843 0.230801
v -0.329970 0.298543 -0.031748
v 0.012407 0.023829 -0.100098
v 0.247809 0.311118 0.219897
v -0.266895 0.728917 0.520227
v -0.022900 0.940670 0.426494
v -0.515512 0.734536 0.154471
v -0.164114 0.786488 -0.043920
v 0.051654 0.577904 0.052217
vt 0.818181 0.000000
vt 0.772726 0.078731
vt 0.863635 0.078731
vt 0.727272 0.157461
vt 0.681818 0.078731
vt 0.636363 0.157461
vt 0.090909 0.000000
vt 0.045454 0.078731
vt 0.136363 0.078731
vt 0.272727 0.000000
vt 0.227273 0.078731
vt 0.318182 0.078731
vt 0.454545 0.000000
vt 0.409090 0.078731
vt 0.500000 0.078731
vt 0.681818 0.236191
vt 0.909090 0.157461
vt 0.818181 0.157461
vt 0.863635 0.236191
vt 0.181818 0.157461
vt 0.090909 0.157461
vt 0.136363 0.236191
vt 0.363636 0.157461
vt 0.272727 0.157461
vt 0.318182 0.236191
vt 0.545454 0.157461
vt 0.454545 0.157461
vt 0.500000 0.236191
vt 0.772726 0.236191
vt 0.954545 0.236191
vt 0.227273 0.236191
vt 0.409090 0.236191
vt 0.590909 0.236191
vt 0.818181 0.314921
vt 0.727272 0.314921
vt 0.772726 0.393651
vt 1.000000 0.314921
vt 0.909091 0.314921
vt 0.954545 0.393651
vt 0.272727 0.314921
vt 0.181818 0.314921
vt 0.227273 0.393651
vt 0.454545 0.314921
vt 0.363636 0.314921
vt 0.409090 0.393651
vt 0.636363 0.314921
vt 0.545454 0.314921
vt 0.590909 0.393651
vt 0.500000 0.393651
vt 0.545454 0.472382
vt 0.318182 0.393651
vt 0.363636 0.472382
vt 0.136363 0.393651
vt 0.181818 0.472382
vt 0.090909 0.314921
vt 0.863635 0.393651
vt 0.909090 0.472382
vt 0.681818 0.393651
vt 0.727272 0.472382
vt 0.045454 0.236191
vt 0.000000 0.157461
vt 0.590909 0.078731
vt 0.636363 0.000000
vn -0.2553 0.9490 0.1849
vn 0.0956 -0.9460 0.3098
vn 0.1004 -0.9862 -0.1319
vn -0.0308 -0.9930 -0.1138
vn 0.1713 -0.9851 0.0175
vn 0.6707 0.2766 0.6882
vn -0.4837 0.0643 0.8729
vn -0.9215 0.0199 -0.3879
vn -0.0165 0.4544 -0.8906
vn 0.4852 0.6871 -0.5408
vn 0.4787 0.2316 0.8469
vn -0.7322 0.1368 0.6672
vn -0.9655 -0.0847 -0.2462
vn 0.3359 0.6949 -0.6358
vn 0.7377 0.6563 -0.1585
vn -0.0127 -0.1474 0.9890
vn -0.9383 -0.3203 0.1306
vn -0.5358 0.1615 -0.8287
vn 0.5583 0.1829 -0.8092
vn 0.8845 0.2514 0.3930
vn 0.4277 0.6902 -0.5837
vn 0.8489 0.4539 -0.2709
vn 0.8116 0.2717 -0.5172
vn 0.7259 0.6566 -0.2047
vn 0.5445 0.1863 -0.8178
vn 0.5961 0.1953 -0.7787
vn -0.4823 0.4907 -0.7257
vn -0.5028 0.1497 -0.8514
vn -0.9300 -0.3146 -0.1901
vn -0.7853 -0.3219 0.5289
vn -0.8103 -0.2089 0.5476
vn -0.6213 -0.3329 0.7093
vn 0.3061 0.0676 0.9496
vn 0.3151 0.0563 0.9474
vn 0.2723 0.0577 0.9605
vn 0.7556 0.5845 0.2957
vn 0.8947 0.4129 0.1703
vn 0.2876 0.4540 -0.8433
vn 0.3366 0.8386 -0.4283
vn 0.3417 0.8410 -0.4194
vn 0.7350 0.5841 -0.3442
vn -0.2567 0.5383 -0.8027
vn -0.9529 -0.2186 -0.2101
vn -0.9698 -0.1634 -0.1810
vn -0.9195 0.1832 0.3479
vn -0.7845 -0.2833 0.5515
vn -0.6630 0.0460 0.7472
vn -0.3697 0.0952 0.9242
vn 0.5013 0.1852 0.8452
vn 0.2687 -0.0604 0.9613
vn 0.2860 0.8460 -0.4500
vn 0.6073 0.6563 -0.4477
vn 0.5796 0.6502 -0.4912
vn -0.3015 0.2943 -0.9069
vn -0.2840 0.3135 -0.9061
vn -0.3178 0.2866 -0.9038
vn -0.9039 0.1127 -0.4126
vn -0.8955 0.0295 -0.4441
vn -0.9775 -0.0333 -0.2084
vn -0.4332 -0.2868 0.8545
vn -0.5754 0.0318 0.8173
vn -0.0492 0.0236 0.9985
vn 0.3079 -0.1340 0.9420
vn 0.3318 -0.0059 0.9433
vn 0.8545 0.2723 0.4424
vn 0.6681 -0.6619 0.3399
vn 0.1408 -0.9898 0.0204
vn 0.0601 -0.8980 -0.4358
vn 0.0263 -0.8921 -0.4510
vn -0.1735 -0.9204 -0.3504
vn -0.1039 -0.9426 -0.3173
vn -0.2023 -0.9455 -0.2553
vn -0.1643 -0.9780 -0.1289
vn -0.1935 -0.9803 0.0390
vn 0.4764 -0.8619 -0.1737
vn 0.1348 -0.9675 0.2141
vn 0.2000 -0.9121 0.3578
vn -0.2165 -0.9763 0.0050
vn 0.1505 -0.9874 0.0485
vn 0.4088 -0.8686 0.2800
usemtl None
s off
f 1/1/1 14/2/1 13/3/1
f 2/4/2 14/5/2 16/6/2
f 1/7/3 13/8/3 18/9/3
f 1/10/4 18/11/4 20/12/4
f 1/13/5 20/14/5 17/15/5
f 2/4/6 16/6/6 23/16/6
f 3/17/7 15/18/7 25/19/7
f 4/20/8 19/21/8 27/22/8
f 5/23/9 21/24/9 29/25/9
f 6/26/10 22/27/10 31/28/10
f 2/4/11 23/16/11 26/29/11
f 3/17/12 25/19/12 28/30/12
f 4/20/13 27/22/13 30/31/13
f 5/23/14 29/25/14 32/32/14
f 6/26/15 31/28/15 24/33/15
f 7/34/16 33/35/16 38/36/16
f 8/37/17 34/38/17 40/39/17
f 9/40/18 35/41/18 41/42/18
f 10/43/19 36/44/19 42/45/19
f 11/46/20 37/47/20 39/48/20
f 39/48/21 42/49/21 12/50/21
f 39/48/22 37/47/22 42/49/22
f 37/47/23 10/43/23 42/49/23
f 42/45/24 41/51/24 12/52/24
f 42/45/25 36/44/25 41/51/25
f 36/44/26 9/40/26 41/51/26
f 41/42/27 40/53/27 12/54/27
f 41/42/28 35/41/28 40/53/28
f 35/41/29 8/55/29 40/53/29
f 40/39/30 38/56/30 12/57/30
f 40/39/31 34/38/31 38/56/31
f 34/38/32 7/34/32 38/56/32
f 38/36/33 39/58/33 12/59/33
f 38/36/34 33/35/34 39/58/34
f 33/35/35 11/46/35 39/58/35
f 24/33/36 37/47/36 11/46/36
f 24/33/37 31/28/37 37/47/37
f 31/28/38 10/43/38 37/47/38
f 32/32/39 36/44/39 10/43/39
f 32/32/40 29/25/40 36/44/40
f 29/25/41 9/40/41 36/44/41
f 30/31/42 35/41/42 9/40/42
f 30/31/43 27/22/43 35/41/43
f 27/22/44 8/55/44 35/41/44
f 28/30/45 34/38/45 8/37/45
f 28/30/46 25/19/46 34/38/46
f 25/19/47 7/34/47 34/38/47
f 26/29/48 33/35/48 7/34/48
f 26/29/49 23/16/49 33/35/49
f 23/16/50 11/46/50 33/35/50
f 31/28/51 32/32/51 10/43/51
f 31/28/52 22/27/52 32/32/52
f 22/27/53 5/23/53 32/32/53
f 29/25/54 30/31/54 9/40/54
f 29/25/55 21/24/55 30/31/55
f 21/24/56 4/20/56 30/31/56
f 27/22/57 28/60/57 8/55/57
f 27/22/58 19/21/58 28/60/58
f 19/21/59 3/61/59 28/60/59
f 25/19/60 26/29/60 7/34/60
f 25/19/61 15/18/61 26/29/61
f 15/18/62 2/4/62 26/29/62
f 23/16/63 24/33/63 11/46/63
f 23/16/64 16/6/64 24/33/64
f 16/6/65 6/26/65 24/33/65
f 17/15/66 22/27/66 6/26/66
f 17/15/67 20/14/67 22/27/67
f 20/14/68 5/23/68 22/27/68
f 20/12/69 21/24/69 5/23/69
f 20/12/70 18/11/70 21/24/70
f 18/11/71 4/20/71 21/24/71
f 18/9/72 19/21/72 4/20/72
f 18/9/73 13/8/73 19/21/73
f 13/8/74 3/61/74 19/21/74
f 16/6/75 17/62/75 6/26/75
f 16/6/76 14/5/76 17/62/76
f 14/5/77 1/63/77 17/62/77
f 13/3/78 15/18/78 3/17/78
f 13/3/79 14/2/79 15/18/79
f 14/2/80 2/4/80 15/18/80
