# Blender v2.83.5 OBJ File: ''
# www.blender.org
mtllib test.mtl
o Icosphere_Icosphere.001
v -0.100763 -0.310622 1.893211
v 0.038771 0.429685 1.033559
v -1.000005 0.284169 3.013763
v -0.208031 0.246575 0.156845
v 0.216698 0.429813 -0.299248
v -0.825230 -1.147281 0.827295
v 0.212964 -1.141376 0.780874
v 0.330777 0.291769 0.152198
v -0.766542 0.362845 -0.546949
v -1.307285 0.386192 2.303990
v -0.814369 0.534861 2.282643
v -0.955942 -0.088105 1.126910
v -0.933639 -1.449783 0.030267
v -0.816396 -0.948471 0.753927
v -1.398084 -1.012582 -0.266762
v 0.110577 -1.892080 0.165523
v -0.514849 -2.085497 0.087325
v -0.425766 -2.066386 -0.173633
v 0.621265 0.490810 -0.486215
v 0.905824 -0.086145 -0.120577
v 0.662082 0.311625 -0.653543
v -0.743997 0.113218 0.317319
v -1.062175 -0.618455 0.459343
v -1.170474 -1.268467 -0.234118
v 1.005601 -1.251235 -0.252780
v -0.410290 0.359969 -0.559304
v -0.983671 -0.088999 -0.015982
v -0.861125 0.253079 -0.634291
v -0.982166 -0.095949 -0.543328
v -1.409115 -0.918526 -0.394578
v -1.180059 -0.466867 -0.184414
v -1.282674 -0.885125 -0.460477
v -0.950741 -1.397144 -0.270525
v -1.375073 -1.080791 -0.419134
v -0.832806 -1.195019 -0.283176
v 0.835833 -0.226324 -0.514709
v 0.085920 -1.760965 -0.220626
v -0.112780 -0.305919 -0.416653
v -0.750905 0.356836 -0.703728
v -0.194268 0.232561 -0.598376
v -0.678383 0.153802 -0.625096
v -0.975335 -0.381013 -0.467785
vt 0.818181 0.000000
vt 0.772726 0.078731
vt 0.863635 0.078731
vt 0.727272 0.157461
vt 0.681818 0.078731
vt 0.636363 0.157461
vt 0.090909 0.000000
vt 0.045454 0.078731
vt 0.136363 0.078731
vt 0.272727 0.000000
vt 0.227273 0.078731
vt 0.318182 0.078731
vt 0.454545 0.000000
vt 0.409090 0.078731
vt 0.500000 0.078731
vt 0.681818 0.236191
vt 0.909090 0.157461
vt 0.818181 0.157461
vt 0.863635 0.236191
vt 0.181818 0.157461
vt 0.090909 0.157461
vt 0.136363 0.236191
vt 0.363636 0.157461
vt 0.272727 0.157461
vt 0.318182 0.236191
vt 0.545454 0.157461
vt 0.454545 0.157461
vt 0.500000 0.236191
vt 0.772726 0.236191
vt 0.954545 0.236191
vt 0.227273 0.236191
vt 0.409090 0.236191
vt 0.590909 0.236191
vt 0.818181 0.314921
vt 0.727272 0.314921
vt 0.772726 0.393651
vt 1.000000 0.314921
vt 0.909091 0.314921
vt 0.954545 0.393651
vt 0.272727 0.314921
vt 0.181818 0.314921
vt 0.227273 0.393651
vt 0.454545 0.314921
vt 0.363636 0.314921
vt 0.409090 0.393651
vt 0.636363 0.314921
vt 0.545454 0.314921
vt 0.590909 0.393651
vt 0.500000 0.393651
vt 0.545454 0.472382
vt 0.318182 0.393651
vt 0.363636 0.472382
vt 0.136363 0.393651
vt 0.181818 0.472382
vt 0.090909 0.314921
vt 0.863635 0.393651
vt 0.909090 0.472382
vt 0.681818 0.393651
vt 0.727272 0.472382
vt 0.045454 0.236191
vt 0.000000 0.157461
vt 0.590909 0.078731
vt 0.636363 0.000000
vn 0.8102 0.3726 0.4524
vn -0.4489 0.8916 -0.0598
vn 0.1411 -0.8231 0.5501
vn 0.0315 -0.7965 0.6038
vn 0.9677 0.0303 0.2503
vn -0.1311 0.9561 0.2620
vn -0.2778 0.8594 -0.4292
vn -0.7470 -0.4837 0.4561
vn 0.2919 -0.9560 0.0296
vn 0.9215 0.3556 -0.1560
vn -0.1528 0.9484 0.2779
vn -0.5814 0.6796 -0.4474
vn -0.7413 -0.6298 0.2322
vn 0.4600 -0.8366 -0.2975
vn -0.0340 0.6780 -0.7343
vn -0.9453 0.3260 -0.0070
vn -0.4944 0.5601 -0.6648
vn 0.2036 -0.1790 -0.9625
vn -0.0897 -0.1450 -0.9854
vn 0.1049 -0.3263 -0.9394
vn 0.0841 -0.3239 -0.9424
vn 0.1018 -0.3042 -0.9471
vn -0.0698 -0.3284 -0.9419
vn 0.0759 -0.2079 -0.9752
vn -0.0161 -0.1357 -0.9906
vn 0.0217 -0.0750 -0.9969
vn 0.2573 -0.1707 -0.9511
vn 0.1768 -0.2827 -0.9428
vn -0.4692 0.0351 -0.8824
vn 0.3577 -0.2312 -0.9048
vn -0.9275 0.3359 -0.1642
vn -0.8857 0.4642 -0.0086
vn -0.0486 -0.2569 -0.9652
vn -0.0746 -0.2272 -0.9710
vn -0.1777 -0.4099 -0.8946
vn 0.2801 0.6821 -0.6755
vn -0.0788 0.1678 -0.9827
vn -0.0380 -0.2612 -0.9645
vn 0.0946 -0.2318 -0.9682
vn 0.3892 -0.7370 -0.5526
vn -0.0037 -0.1461 -0.9893
vn -0.5198 -0.8160 -0.2530
vn -0.7467 -0.6419 0.1746
vn -0.9787 -0.1963 -0.0600
vn -0.9057 0.3444 0.2470
vn -0.9843 -0.0229 0.1749
vn -0.8910 0.4536 0.0213
vn -0.7709 0.6096 0.1845
vn -0.8118 0.5551 0.1815
vn -0.7141 0.6932 -0.0978
vn -0.0155 0.2452 0.9694
vn 0.9335 0.1184 -0.3386
vn 0.4583 -0.0614 0.8867
vn -0.3817 -0.4187 -0.8240
vn -0.6901 -0.6656 -0.2843
vn -0.7897 -0.4867 0.3736
vn -0.9212 0.2711 0.2790
vn -0.8479 -0.1895 0.4951
vn -0.8540 -0.4961 0.1567
vn -0.6572 0.7536 0.0154
vn -0.8917 0.4350 -0.1253
vn -0.2949 0.9320 -0.2105
vn 0.0068 0.9993 -0.0376
vn -0.0011 0.9664 -0.2569
vn -0.1288 0.9907 0.0445
vn 0.6294 0.6130 0.4775
vn 0.5604 0.2937 0.7744
vn 0.8946 -0.3499 0.2780
vn 0.1023 -0.6389 0.7624
vn 0.0388 -0.6109 0.7908
vn -0.8084 -0.5054 0.3018
vn -0.9912 0.0823 0.1036
vn -0.9961 0.0120 -0.0875
vn -0.7755 -0.5786 0.2526
vn -0.0081 0.9557 0.2943
vn 0.6185 0.7814 0.0826
vn 0.9446 0.1569 0.2884
vn -0.2696 0.9299 0.2504
vn 0.6499 0.6530 0.3889
vn -0.1263 0.9776 -0.1686
usemtl None
s 1
f 1/1/1 2/2/1 3/3/1
f 4/4/2 2/5/2 5/6/2
f 1/7/3 3/8/3 6/9/3
f 1/10/4 6/11/4 7/12/4
f 1/13/5 7/14/5 8/15/5
f 4/4/6 5/6/6 9/16/6
f 10/17/7 11/18/7 12/19/7
f 13/20/8 14/21/8 15/22/8
f 16/23/9 17/24/9 18/25/9
f 19/26/10 20/27/10 21/28/10
f 4/4/11 9/16/11 22/29/11
f 10/17/12 12/19/12 23/30/12
f 13/20/13 15/22/13 24/31/13
f 16/23/14 18/25/14 25/32/14
f 19/26/15 21/28/15 26/33/15
f 27/34/16 28/35/16 29/36/16
f 30/37/17 31/38/17 32/39/17
f 33/40/18 34/41/18 35/42/18
f 36/43/19 37/44/19 38/45/19
f 39/46/20 40/47/20 41/48/20
f 41/48/21 38/49/21 42/50/21
f 41/48/22 40/47/22 38/49/22
f 40/47/23 36/43/23 38/49/23
f 38/45/24 35/51/24 42/52/24
f 38/45/25 37/44/25 35/51/25
f 37/44/26 33/40/26 35/51/26
f 35/42/27 32/53/27 42/54/27
f 35/42/28 34/41/28 32/53/28
f 34/41/29 30/55/29 32/53/29
f 32/39/30 29/56/30 42/57/30
f 32/39/31 31/38/31 29/56/31
f 31/38/32 27/34/32 29/56/32
f 29/36/33 41/58/33 42/59/33
f 29/36/34 28/35/34 41/58/34
f 28/35/35 39/46/35 41/58/35
f 26/33/36 40/47/36 39/46/36
f 26/33/37 21/28/37 40/47/37
f 21/28/38 36/43/38 40/47/38
f 25/32/39 37/44/39 36/43/39
f 25/32/40 18/25/40 37/44/40
f 18/25/41 33/40/41 37/44/41
f 24/31/42 34/41/42 33/40/42
f 24/31/43 15/22/43 34/41/43
f 15/22/44 30/55/44 34/41/44
f 23/30/45 31/38/45 30/37/45
f 23/30/46 12/19/46 31/38/46
f 12/19/47 27/34/47 31/38/47
f 22/29/48 28/35/48 27/34/48
f 22/29/49 9/16/49 28/35/49
f 9/16/50 39/46/50 28/35/50
f 21/28/51 25/32/51 36/43/51
f 21/28/52 20/27/52 25/32/52
f 20/27/53 16/23/53 25/32/53
f 18/25/54 24/31/54 33/40/54
f 18/25/55 17/24/55 24/31/55
f 17/24/56 13/20/56 24/31/56
f 15/22/57 23/60/57 30/55/57
f 15/22/58 14/21/58 23/60/58
f 14/21/59 10/61/59 23/60/59
f 12/19/60 22/29/60 27/34/60
f 12/19/61 11/18/61 22/29/61
f 11/18/62 4/4/62 22/29/62
f 9/16/63 26/33/63 39/46/63
f 9/16/64 5/6/64 26/33/64
f 5/6/65 19/26/65 26/33/65
f 8/15/66 20/27/66 19/26/66
f 8/15/67 7/14/67 20/27/67
f 7/14/68 16/23/68 20/27/68
f 7/12/69 17/24/69 16/23/69
f 7/12/70 6/11/70 17/24/70
f 6/11/71 13/20/71 17/24/71
f 6/9/72 14/21/72 13/20/72
f 6/9/73 3/8/73 14/21/73
f 3/8/74 10/61/74 14/21/74
f 5/6/75 8/62/75 19/26/75
f 5/6/76 2/5/76 8/62/76
f 2/5/77 1/63/77 8/62/77
f 3/3/78 11/18/78 10/17/78
f 3/3/79 2/2/79 11/18/79
f 2/2/80 4/4/80 11/18/80
